<svg width="97pt" height="188pt" viewBox="0.00 0.00 96.96 188.00" xmlns="http://www.w3.org/2000/svg" xmlns:xlink="http://www.w3.org/1999/xlink">
<g id="graph1" class="graph" transform="scale(1 1) rotate(0) translate(4 184)">
<title>finite_state_machine</title>
<polygon fill="white" stroke="white" points="-4,5 -4,-184 93.9644,-184 93.9644,5 -4,5"></polygon>
<!-- start -->
<g id="node1" class="node"><title>start</title>
<ellipse fill="black" stroke="black" cx="2" cy="-22" rx="1.8" ry="1.8"></ellipse>
</g>
<!-- 1 -->
<g id="node2" class="node"><title>1</title>
<ellipse fill="none" stroke="black" cx="64" cy="-22" rx="18" ry="18"></ellipse>
<ellipse fill="none" stroke="black" cx="64" cy="-22" rx="22" ry="22"></ellipse>
<text text-anchor="middle" x="64" y="-17.8" font-family="Times,serif" font-size="14.00">1</text>
</g>
<!-- start&#45;&gt;1 -->
<g id="edge2" class="edge"><title>start-&gt;1</title>
<path fill="none" stroke="black" d="M4.04141,-22C7.56702,-22 19.5171,-22 31.7457,-22"></path>
<polygon fill="black" stroke="black" points="31.9043,-25.5001 41.9043,-22 31.9042,-18.5001 31.9043,-25.5001"></polygon>
</g>
<!-- 1&#45;&gt;1 -->
<g id="edge4" class="edge"><title>1-&gt;1</title>
<path fill="none" stroke="black" d="M62.1474,-44.2124C61.9958,-53.7952 62.6133,-62 64,-62 64.845,-62 65.4044,-58.9533 65.6782,-54.4045"></path>
<polygon fill="black" stroke="black" points="69.1809,-54.2708 65.8526,-44.2124 62.1819,-54.151 69.1809,-54.2708"></polygon>
<text text-anchor="middle" x="64" y="-66.2" font-family="Times,serif" font-size="14.00">a b/-</text>
</g>
<!-- 1&#45;&gt;1 -->
<g id="edge6" class="edge"><title>1-&gt;1</title>
<path fill="none" stroke="black" d="M48.8812,-38.3287C37.8107,-57.565 42.8503,-80 64,-80 81.6799,-80 88.1021,-64.3226 83.2667,-47.9417"></path>
<polygon fill="black" stroke="black" points="86.2942,-46.1238 79.1188,-38.3287 79.867,-48.8971 86.2942,-46.1238"></polygon>
<text text-anchor="middle" x="64" y="-84.2" font-family="Times,serif" font-size="14.00">a -/a</text>
</g>
<!-- 1&#45;&gt;1 -->
<g id="edge8" class="edge"><title>1-&gt;1</title>
<path fill="none" stroke="black" d="M49.7298,-39.1767C34.8887,-65.1922 39.6455,-98 64,-98 85.5956,-98 91.7821,-72.2042 82.5594,-48.2218"></path>
<polygon fill="black" stroke="black" points="85.7174,-46.7126 78.2702,-39.1767 79.3924,-49.7119 85.7174,-46.7126"></polygon>
<text text-anchor="middle" x="64" y="-102.2" font-family="Times,serif" font-size="14.00">b a/-</text>
</g>
<!-- 1&#45;&gt;1 -->
<g id="edge10" class="edge"><title>1-&gt;1</title>
<path fill="none" stroke="black" d="M50.5189,-39.5369C32.1161,-72.2091 36.6098,-116 64,-116 88.9293,-116 94.8916,-79.7243 81.8868,-48.5725"></path>
<polygon fill="black" stroke="black" points="85.0098,-46.9914 77.4811,-39.5369 78.7179,-50.0593 85.0098,-46.9914"></polygon>
<text text-anchor="middle" x="64" y="-120.2" font-family="Times,serif" font-size="14.00">b -/b</text>
</g>
</g>
</svg>