<svg width="192pt" height="87pt" viewBox="0.00 0.00 192.00 86.80" xmlns="http://www.w3.org/2000/svg" xmlns:xlink="http://www.w3.org/1999/xlink">
<g id="graph1" class="graph" transform="scale(1 1) rotate(0) translate(4 82.8)">
<title>finite_state_machine</title>
<polygon fill="white" stroke="white" points="-4,5 -4,-82.8 189,-82.8 189,5 -4,5"></polygon>
<!-- start -->
<g id="node1" class="node"><title>start</title>
<ellipse fill="black" stroke="black" cx="2" cy="-22" rx="1.8" ry="1.8"></ellipse>
</g>
<!-- 0 -->
<g id="node2" class="node"><title>0</title>
<ellipse fill="none" stroke="black" cx="60" cy="-22" rx="18" ry="18"></ellipse>
<text text-anchor="middle" x="60" y="-17.8" font-family="Times,serif" font-size="14.00">0</text>
</g>
<!-- start&#45;&gt;0 -->
<g id="edge2" class="edge"><title>start-&gt;0</title>
<path fill="none" stroke="black" d="M3.97198,-22C7.43184,-22 19.5845,-22 31.5919,-22"></path>
<polygon fill="black" stroke="black" points="31.8844,-25.5001 41.8843,-22 31.8843,-18.5001 31.8844,-25.5001"></polygon>
</g>
<!-- 0&#45;&gt;0 -->
<g id="edge4" class="edge"><title>0-&gt;0</title>
<path fill="none" stroke="black" d="M53.6208,-39.0373C52.3189,-48.8579 54.4453,-58 60,-58 63.4717,-58 65.6042,-54.4289 66.3975,-49.3529"></path>
<polygon fill="black" stroke="black" points="69.8971,-49.031 66.3792,-39.0373 62.8971,-49.0435 69.8971,-49.031"></polygon>
<text text-anchor="middle" x="60" y="-62.2" font-family="Times,serif" font-size="14.00">a -/a</text>
</g>
<!-- 1 -->
<g id="node3" class="node"><title>1</title>
<ellipse fill="none" stroke="black" cx="162" cy="-22" rx="18" ry="18"></ellipse>
<ellipse fill="none" stroke="black" cx="162" cy="-22" rx="22" ry="22"></ellipse>
<text text-anchor="middle" x="162" y="-17.8" font-family="Times,serif" font-size="14.00">1</text>
</g>
<!-- 0&#45;&gt;1 -->
<g id="edge6" class="edge"><title>0-&gt;1</title>
<path fill="none" stroke="black" d="M78.4187,-22C92.5989,-22 112.972,-22 129.934,-22"></path>
<polygon fill="black" stroke="black" points="129.968,-25.5001 139.968,-22 129.968,-18.5001 129.968,-25.5001"></polygon>
<text text-anchor="middle" x="109" y="-26.2" font-family="Times,serif" font-size="14.00">b a/-</text>
</g>
<!-- 1&#45;&gt;1 -->
<g id="edge8" class="edge"><title>1-&gt;1</title>
<path fill="none" stroke="black" d="M152.593,-42.1697C151.146,-52.599 154.281,-62 162,-62 167.065,-62 170.157,-57.9513 171.275,-52.2203"></path>
<polygon fill="black" stroke="black" points="174.775,-52.2149 171.407,-42.1697 167.776,-52.1228 174.775,-52.2149"></polygon>
<text text-anchor="middle" x="162" y="-66.2" font-family="Times,serif" font-size="14.00">b a/-</text>
</g>
</g>
</svg>