<svg width="174pt" height="83pt" viewBox="0.00 0.00 174.00 82.80" xmlns="http://www.w3.org/2000/svg" xmlns:xlink="http://www.w3.org/1999/xlink">
<g id="graph1" class="graph" transform="scale(1 1) rotate(0) translate(4 78.8)">
<title>finite_state_machine</title>
<polygon fill="white" stroke="white" points="-4,5 -4,-78.8 171,-78.8 171,5 -4,5"></polygon>
<!-- start -->
<g id="node1" class="node"><title>start</title>
<ellipse fill="black" stroke="black" cx="2" cy="-22" rx="1.8" ry="1.8"></ellipse>
</g>
<!-- 1 -->
<g id="node2" class="node"><title>1</title>
<ellipse fill="none" stroke="red" cx="60" cy="-22" rx="18" ry="18"></ellipse>
<text text-anchor="middle" x="60" y="-17.8" font-family="Times,serif" font-size="14.00">1</text>
</g>
<!-- start&#45;&gt;1 -->
<g id="edge2" class="edge"><title>start-&gt;1</title>
<path fill="none" stroke="black" d="M3.97198,-22C7.43184,-22 19.5845,-22 31.5919,-22"></path>
<polygon fill="black" stroke="black" points="31.8844,-25.5001 41.8843,-22 31.8843,-18.5001 31.8844,-25.5001"></polygon>
</g>
<!-- 1&#45;&gt;1 -->
<g id="edge4" class="edge"><title>1-&gt;1</title>
<path fill="none" stroke="black" d="M53.6208,-39.0373C52.3189,-48.8579 54.4453,-58 60,-58 63.4717,-58 65.6042,-54.4289 66.3975,-49.3529"></path>
<polygon fill="black" stroke="black" points="69.8971,-49.031 66.3792,-39.0373 62.8971,-49.0435 69.8971,-49.031"></polygon>
<text text-anchor="middle" x="60" y="-62.2" font-family="Times,serif" font-size="14.00">a</text>
</g>
<!-- 2 -->
<g id="node3" class="node"><title>2</title>
<ellipse fill="none" stroke="black" cx="144" cy="-22" rx="18" ry="18"></ellipse>
<ellipse fill="none" stroke="black" cx="144" cy="-22" rx="22" ry="22"></ellipse>
<text text-anchor="middle" x="144" y="-17.8" font-family="Times,serif" font-size="14.00">2</text>
</g>
<!-- 1&#45;&gt;2 -->
<g id="edge6" class="edge"><title>1-&gt;2</title>
<path fill="none" stroke="black" d="M78.3901,-22C88.1084,-22 100.511,-22 111.847,-22"></path>
<polygon fill="black" stroke="black" points="111.85,-25.5001 121.85,-22 111.85,-18.5001 111.85,-25.5001"></polygon>
<text text-anchor="middle" x="100" y="-26.2" font-family="Times,serif" font-size="14.00">b</text>
</g>
</g>
</svg>