<svg width="172pt" height="52pt" viewBox="0.00 0.00 172.00 52.00" xmlns="http://www.w3.org/2000/svg" xmlns:xlink="http://www.w3.org/1999/xlink">
<g id="graph1" class="graph" transform="scale(1 1) rotate(0) translate(4 48)">
<title>finite_state_machine</title>
<polygon fill="white" stroke="white" points="-4,5 -4,-48 169,-48 169,5 -4,5"></polygon>
<!-- start -->
<g id="node1" class="node"><title>start</title>
<ellipse fill="black" stroke="black" cx="2" cy="-22" rx="1.8" ry="1.8"></ellipse>
</g>
<!-- 1 -->
<g id="node2" class="node"><title>1</title>
<ellipse fill="none" stroke="red" cx="64" cy="-22" rx="18" ry="18"></ellipse>
<ellipse fill="none" stroke="red" cx="64" cy="-22" rx="22" ry="22"></ellipse>
<text text-anchor="middle" x="64" y="-17.8" font-family="Times,serif" font-size="14.00">1</text>
</g>
<!-- start&#45;&gt;1 -->
<g id="edge2" class="edge"><title>start-&gt;1</title>
<path fill="none" stroke="black" d="M4.04141,-22C7.56702,-22 19.5171,-22 31.7457,-22"></path>
<polygon fill="black" stroke="black" points="31.9043,-25.5001 41.9043,-22 31.9042,-18.5001 31.9043,-25.5001"></polygon>
</g>
<!-- 2 -->
<g id="node3" class="node"><title>2</title>
<ellipse fill="none" stroke="black" cx="146" cy="-22" rx="18" ry="18"></ellipse>
<text text-anchor="middle" x="146" y="-17.8" font-family="Times,serif" font-size="14.00">2</text>
</g>
<!-- 1&#45;&gt;2 -->
<g id="edge4" class="edge"><title>1-&gt;2</title>
<path fill="none" stroke="black" d="M86.0191,-22C95.7083,-22 107.332,-22 117.689,-22"></path>
<polygon fill="black" stroke="black" points="117.89,-25.5001 127.89,-22 117.89,-18.5001 117.89,-25.5001"></polygon>
<text text-anchor="middle" x="107" y="-26.2" font-family="Times,serif" font-size="14.00">a</text>
</g>
<!-- 2&#45;&gt;1 -->
<g id="edge6" class="edge"><title>2-&gt;1</title>
<path fill="none" stroke="black" d="M131.149,-11.4305C125.014,-7.38967 117.497,-3.25969 110,-1.2 103.573,0.565531 96.9171,-0.640257 90.7583,-3.18132"></path>
<polygon fill="black" stroke="black" points="88.7908,-0.262873 81.5941,-8.03839 92.0689,-6.44788 88.7908,-0.262873"></polygon>
<text text-anchor="middle" x="107" y="-5.2" font-family="Times,serif" font-size="14.00">a</text>
</g>
</g>
</svg>