<svg width="500pt" height="227pt" viewBox="0.00 0.00 500.00 227.00" xmlns="http://www.w3.org/2000/svg" xmlns:xlink="http://www.w3.org/1999/xlink">
<g id="graph1" class="graph" transform="scale(1 1) rotate(0) translate(4 223)">
<title>finite_state_machine</title>
<polygon fill="white" stroke="white" points="-4,5 -4,-223 497,-223 497,5 -4,5"></polygon>
<!-- start -->
<g id="node1" class="node"><title>start</title>
<ellipse fill="black" stroke="black" cx="2" cy="-121" rx="1.8" ry="1.8"></ellipse>
</g>
<!-- 0,0 -->
<g id="node2" class="node"><title>0,0</title>
<ellipse fill="none" stroke="red" cx="65" cy="-121" rx="23.2159" ry="23.2159"></ellipse>
<text text-anchor="middle" x="65" y="-116.8" font-family="Times,serif" font-size="14.00">0,0</text>
</g>
<!-- start&#45;&gt;0,0 -->
<g id="edge2" class="edge"><title>start-&gt;0,0</title>
<path fill="none" stroke="black" d="M4.05877,-121C7.56897,-121 19.2934,-121 31.4535,-121"></path>
<polygon fill="black" stroke="black" points="31.5998,-124.5 41.5998,-121 31.5998,-117.5 31.5998,-124.5"></polygon>
</g>
<!-- 1,0 -->
<g id="node3" class="node"><title>1,0</title>
<ellipse fill="none" stroke="black" cx="155" cy="-150" rx="23.2159" ry="23.2159"></ellipse>
<text text-anchor="middle" x="155" y="-145.8" font-family="Times,serif" font-size="14.00">1,0</text>
</g>
<!-- 0,0&#45;&gt;1,0 -->
<g id="edge4" class="edge"><title>0,0-&gt;1,0</title>
<path fill="none" stroke="black" d="M87.3023,-128.02C98.1116,-131.582 111.437,-135.974 123.329,-139.893"></path>
<polygon fill="black" stroke="black" points="122.301,-143.239 132.894,-143.045 124.492,-136.59 122.301,-143.239"></polygon>
<text text-anchor="middle" x="110" y="-141.2" font-family="Times,serif" font-size="14.00">a</text>
</g>
<!-- 0,1 -->
<g id="node5" class="node"><title>0,1</title>
<ellipse fill="none" stroke="black" cx="155" cy="-86" rx="23.2159" ry="23.2159"></ellipse>
<text text-anchor="middle" x="155" y="-81.8" font-family="Times,serif" font-size="14.00">0,1</text>
</g>
<!-- 0,0&#45;&gt;0,1 -->
<g id="edge16" class="edge"><title>0,0-&gt;0,1</title>
<path fill="none" stroke="black" d="M86.8548,-112.705C97.9237,-108.303 111.724,-102.814 123.931,-97.9595"></path>
<polygon fill="black" stroke="black" points="125.296,-101.183 133.295,-94.235 122.709,-94.6785 125.296,-101.183"></polygon>
<text text-anchor="middle" x="110" y="-109.2" font-family="Times,serif" font-size="14.00">b</text>
</g>
<!-- 2,0 -->
<g id="node4" class="node"><title>2,0</title>
<ellipse fill="none" stroke="black" cx="251" cy="-196" rx="23.2159" ry="23.2159"></ellipse>
<text text-anchor="middle" x="251" y="-191.8" font-family="Times,serif" font-size="14.00">2,0</text>
</g>
<!-- 1,0&#45;&gt;2,0 -->
<g id="edge6" class="edge"><title>1,0-&gt;2,0</title>
<path fill="none" stroke="black" d="M176.397,-159.981C189.419,-166.354 206.504,-174.715 220.935,-181.777"></path>
<polygon fill="black" stroke="black" points="219.446,-184.944 229.966,-186.196 222.522,-178.657 219.446,-184.944"></polygon>
<text text-anchor="middle" x="200" y="-177.2" font-family="Times,serif" font-size="14.00">a</text>
</g>
<!-- 1,1 -->
<g id="node6" class="node"><title>1,1</title>
<ellipse fill="none" stroke="black" cx="251" cy="-132" rx="23.2159" ry="23.2159"></ellipse>
<text text-anchor="middle" x="251" y="-127.8" font-family="Times,serif" font-size="14.00">1,1</text>
</g>
<!-- 1,0&#45;&gt;1,1 -->
<g id="edge18" class="edge"><title>1,0-&gt;1,1</title>
<path fill="none" stroke="black" d="M177.802,-145.825C189.699,-143.547 204.654,-140.683 217.863,-138.154"></path>
<polygon fill="black" stroke="black" points="218.828,-141.533 227.991,-136.215 217.511,-134.658 218.828,-141.533"></polygon>
<text text-anchor="middle" x="200" y="-147.2" font-family="Times,serif" font-size="14.00">b</text>
</g>
<!-- 2,1 -->
<g id="node7" class="node"><title>2,1</title>
<ellipse fill="none" stroke="black" cx="353" cy="-167" rx="23.2159" ry="23.2159"></ellipse>
<text text-anchor="middle" x="353" y="-162.8" font-family="Times,serif" font-size="14.00">2,1</text>
</g>
<!-- 2,0&#45;&gt;2,1 -->
<g id="edge20" class="edge"><title>2,0-&gt;2,1</title>
<path fill="none" stroke="black" d="M273.699,-189.707C287.552,-185.69 305.728,-180.419 321.08,-175.967"></path>
<polygon fill="black" stroke="black" points="322.058,-179.327 330.687,-173.181 320.108,-172.604 322.058,-179.327"></polygon>
<text text-anchor="middle" x="302" y="-187.2" font-family="Times,serif" font-size="14.00">b</text>
</g>
<!-- 0,1&#45;&gt;1,1 -->
<g id="edge8" class="edge"><title>0,1-&gt;1,1</title>
<path fill="none" stroke="black" d="M176.397,-95.9813C189.419,-102.354 206.504,-110.715 220.935,-117.777"></path>
<polygon fill="black" stroke="black" points="219.446,-120.944 229.966,-122.196 222.522,-114.657 219.446,-120.944"></polygon>
<text text-anchor="middle" x="200" y="-113.2" font-family="Times,serif" font-size="14.00">a</text>
</g>
<!-- 0,&gt;1 -->
<g id="node8" class="node"><title>0,&gt;1</title>
<ellipse fill="none" stroke="black" cx="251" cy="-28" rx="28.6066" ry="28.6066"></ellipse>
<text text-anchor="middle" x="251" y="-23.8" font-family="Times,serif" font-size="14.00">0,&gt;1</text>
</g>
<!-- 0,1&#45;&gt;0,&gt;1 -->
<g id="edge22" class="edge"><title>0,1-&gt;0,&gt;1</title>
<path fill="none" stroke="black" d="M175.022,-74.2628C187.284,-66.6972 203.54,-56.6669 217.78,-47.8802"></path>
<polygon fill="black" stroke="black" points="219.66,-50.8328 226.333,-42.6031 215.985,-44.8756 219.66,-50.8328"></polygon>
<text text-anchor="middle" x="200" y="-65.2" font-family="Times,serif" font-size="14.00">b</text>
</g>
<!-- 1,1&#45;&gt;2,1 -->
<g id="edge10" class="edge"><title>1,1-&gt;2,1</title>
<path fill="none" stroke="black" d="M273.207,-139.423C287.128,-144.295 305.566,-150.748 321.106,-156.187"></path>
<polygon fill="black" stroke="black" points="320.228,-159.588 330.823,-159.588 322.541,-152.981 320.228,-159.588"></polygon>
<text text-anchor="middle" x="302" y="-155.2" font-family="Times,serif" font-size="14.00">a</text>
</g>
<!-- 1,&gt;1 -->
<g id="node9" class="node"><title>1,&gt;1</title>
<ellipse fill="none" stroke="black" cx="353" cy="-63" rx="28.6066" ry="28.6066"></ellipse>
<text text-anchor="middle" x="353" y="-58.8" font-family="Times,serif" font-size="14.00">1,&gt;1</text>
</g>
<!-- 1,1&#45;&gt;1,&gt;1 -->
<g id="edge24" class="edge"><title>1,1-&gt;1,&gt;1</title>
<path fill="none" stroke="black" d="M270.342,-119.344C284.458,-109.604 304.294,-95.9171 320.881,-84.4723"></path>
<polygon fill="black" stroke="black" points="322.968,-87.2847 329.211,-78.7246 318.992,-81.5231 322.968,-87.2847"></polygon>
<text text-anchor="middle" x="302" y="-104.2" font-family="Times,serif" font-size="14.00">b</text>
</g>
<!-- 2,&gt;1 -->
<g id="node10" class="node"><title>2,&gt;1</title>
<ellipse fill="none" stroke="black" cx="459" cy="-123" rx="28.6" ry="28.6"></ellipse>
<ellipse fill="none" stroke="black" cx="459" cy="-123" rx="32.6066" ry="32.6066"></ellipse>
<text text-anchor="middle" x="459" y="-118.8" font-family="Times,serif" font-size="14.00">2,&gt;1</text>
</g>
<!-- 2,1&#45;&gt;2,&gt;1 -->
<g id="edge26" class="edge"><title>2,1-&gt;2,&gt;1</title>
<path fill="none" stroke="black" d="M374.547,-158.307C387.391,-152.873 404.336,-145.704 419.599,-139.247"></path>
<polygon fill="black" stroke="black" points="420.988,-142.46 428.834,-135.34 418.26,-136.013 420.988,-142.46"></polygon>
<text text-anchor="middle" x="404" y="-151.2" font-family="Times,serif" font-size="14.00">b</text>
</g>
<!-- 0,&gt;1&#45;&gt;0,&gt;1 -->
<g id="edge28" class="edge"><title>0,&gt;1-&gt;0,&gt;1</title>
<path fill="none" stroke="black" d="M241.662,-54.9321C241.247,-65.3451 244.359,-74 251,-74 255.254,-74 258.06,-70.448 259.419,-65.1573"></path>
<polygon fill="black" stroke="black" points="262.929,-65.2054 260.338,-54.9321 255.957,-64.5784 262.929,-65.2054"></polygon>
<text text-anchor="middle" x="251" y="-78.2" font-family="Times,serif" font-size="14.00">b</text>
</g>
<!-- 0,&gt;1&#45;&gt;1,&gt;1 -->
<g id="edge12" class="edge"><title>0,&gt;1-&gt;1,&gt;1</title>
<path fill="none" stroke="black" d="M278.274,-37.1958C289.872,-41.2551 303.687,-46.0904 316.206,-50.4722"></path>
<polygon fill="black" stroke="black" points="315.307,-53.8655 325.902,-53.8656 317.619,-47.2585 315.307,-53.8655"></polygon>
<text text-anchor="middle" x="302" y="-51.2" font-family="Times,serif" font-size="14.00">a</text>
</g>
<!-- 1,&gt;1&#45;&gt;1,&gt;1 -->
<g id="edge30" class="edge"><title>1,&gt;1-&gt;1,&gt;1</title>
<path fill="none" stroke="black" d="M343.662,-89.9321C343.247,-100.345 346.359,-109 353,-109 357.254,-109 360.06,-105.448 361.419,-100.157"></path>
<polygon fill="black" stroke="black" points="364.929,-100.205 362.338,-89.9321 357.957,-99.5784 364.929,-100.205"></polygon>
<text text-anchor="middle" x="353" y="-113.2" font-family="Times,serif" font-size="14.00">b</text>
</g>
<!-- 1,&gt;1&#45;&gt;2,&gt;1 -->
<g id="edge14" class="edge"><title>1,&gt;1-&gt;2,&gt;1</title>
<path fill="none" stroke="black" d="M378.121,-76.916C391.041,-84.3698 407.221,-93.7043 421.634,-102.02"></path>
<polygon fill="black" stroke="black" points="419.924,-105.074 430.335,-107.039 423.422,-99.0104 419.924,-105.074"></polygon>
<text text-anchor="middle" x="404" y="-97.2" font-family="Times,serif" font-size="14.00">a</text>
</g>
<!-- 2,&gt;1&#45;&gt;2,&gt;1 -->
<g id="edge32" class="edge"><title>2,&gt;1-&gt;2,&gt;1</title>
<path fill="none" stroke="black" d="M448.877,-153.76C448.77,-164.404 452.145,-173 459,-173 463.499,-173 466.499,-169.298 467.999,-163.745"></path>
<polygon fill="black" stroke="black" points="471.482,-164.089 469.123,-153.76 464.526,-163.306 471.482,-164.089"></polygon>
<text text-anchor="middle" x="459" y="-177.2" font-family="Times,serif" font-size="14.00">b</text>
</g>
</g>
</svg>