<svg width="368pt" height="101pt" viewBox="0.00 0.00 368.00 100.80" xmlns="http://www.w3.org/2000/svg" xmlns:xlink="http://www.w3.org/1999/xlink">
<g id="graph1" class="graph" transform="scale(1 1) rotate(0) translate(4 96.8)">
<title>finite_state_machine</title>
<polygon fill="white" stroke="white" points="-4,5 -4,-96.8 365,-96.8 365,5 -4,5"></polygon>
<!-- start -->
<g id="node1" class="node"><title>start</title>
<ellipse fill="black" stroke="black" cx="2" cy="-29" rx="1.8" ry="1.8"></ellipse>
</g>
<!-- 1 -->
<g id="node2" class="node"><title>1</title>
<ellipse fill="none" stroke="red" cx="60" cy="-29" rx="18" ry="18"></ellipse>
<text text-anchor="middle" x="60" y="-24.8" font-family="Times,serif" font-size="14.00">1</text>
</g>
<!-- start&#45;&gt;1 -->
<g id="edge2" class="edge"><title>start-&gt;1</title>
<path fill="none" stroke="black" d="M3.97198,-29C7.43184,-29 19.5845,-29 31.5919,-29"></path>
<polygon fill="black" stroke="black" points="31.8844,-32.5001 41.8843,-29 31.8843,-25.5001 31.8844,-32.5001"></polygon>
</g>
<!-- 1&#45;&gt;1 -->
<g id="edge6" class="edge"><title>1-&gt;1</title>
<path fill="none" stroke="black" d="M53.6208,-46.0373C52.3189,-55.8579 54.4453,-65 60,-65 63.4717,-65 65.6042,-61.4289 66.3975,-56.3529"></path>
<polygon fill="black" stroke="black" points="69.8971,-56.031 66.3792,-46.0373 62.8971,-56.0435 69.8971,-56.031"></polygon>
<text text-anchor="middle" x="60" y="-69.2" font-family="Times,serif" font-size="14.00">b</text>
</g>
<!-- 12 -->
<g id="node3" class="node"><title>12</title>
<ellipse fill="none" stroke="black" cx="141" cy="-29" rx="20.8887" ry="20.8887"></ellipse>
<text text-anchor="middle" x="141" y="-24.8" font-family="Times,serif" font-size="14.00">12</text>
</g>
<!-- 1&#45;&gt;12 -->
<g id="edge4" class="edge"><title>1-&gt;12</title>
<path fill="none" stroke="black" d="M78.1418,-29C87.3993,-29 99.0999,-29 109.827,-29"></path>
<polygon fill="black" stroke="black" points="110.103,-32.5001 120.103,-29 110.103,-25.5001 110.103,-32.5001"></polygon>
<text text-anchor="middle" x="99" y="-33.2" font-family="Times,serif" font-size="14.00">a</text>
</g>
<!-- 12&#45;&gt;12 -->
<g id="edge8" class="edge"><title>12-&gt;12</title>
<path fill="none" stroke="black" d="M133.402,-48.1612C132.233,-58.069 134.766,-67 141,-67 144.896,-67 147.347,-63.5113 148.352,-58.4759"></path>
<polygon fill="black" stroke="black" points="151.858,-58.242 148.598,-48.1612 144.86,-58.0747 151.858,-58.242"></polygon>
<text text-anchor="middle" x="141" y="-71.2" font-family="Times,serif" font-size="14.00">a</text>
</g>
<!-- 13 -->
<g id="node4" class="node"><title>13</title>
<ellipse fill="none" stroke="black" cx="231" cy="-29" rx="20.8568" ry="20.8568"></ellipse>
<ellipse fill="none" stroke="black" cx="231" cy="-29" rx="24.8884" ry="24.8884"></ellipse>
<text text-anchor="middle" x="231" y="-24.8" font-family="Times,serif" font-size="14.00">13</text>
</g>
<!-- 12&#45;&gt;13 -->
<g id="edge10" class="edge"><title>12-&gt;13</title>
<path fill="none" stroke="black" d="M161.969,-29C171.985,-29 184.399,-29 195.87,-29"></path>
<polygon fill="black" stroke="black" points="196.043,-32.5001 206.043,-29 196.043,-25.5001 196.043,-32.5001"></polygon>
<text text-anchor="middle" x="184" y="-33.2" font-family="Times,serif" font-size="14.00">b</text>
</g>
<!-- 13&#45;&gt;13 -->
<g id="edge14" class="edge"><title>13-&gt;13</title>
<path fill="none" stroke="black" d="M222.51,-51.897C221.701,-62.1406 224.531,-71 231,-71 235.144,-71 237.795,-67.3641 238.952,-62.0576"></path>
<polygon fill="black" stroke="black" points="242.456,-62.0681 239.49,-51.897 235.466,-61.6979 242.456,-62.0681"></polygon>
<text text-anchor="middle" x="231" y="-75.2" font-family="Times,serif" font-size="14.00">b</text>
</g>
<!-- 123 -->
<g id="node5" class="node"><title>123</title>
<ellipse fill="none" stroke="black" cx="330" cy="-29" rx="25.5409" ry="25.5409"></ellipse>
<ellipse fill="none" stroke="black" cx="330" cy="-29" rx="29.5439" ry="29.5439"></ellipse>
<text text-anchor="middle" x="330" y="-24.8" font-family="Times,serif" font-size="14.00">123</text>
</g>
<!-- 13&#45;&gt;123 -->
<g id="edge12" class="edge"><title>13-&gt;123</title>
<path fill="none" stroke="black" d="M255.978,-29C266.286,-29 278.601,-29 290.154,-29"></path>
<polygon fill="black" stroke="black" points="290.471,-32.5001 300.47,-29 290.47,-25.5001 290.471,-32.5001"></polygon>
<text text-anchor="middle" x="278" y="-33.2" font-family="Times,serif" font-size="14.00">a</text>
</g>
<!-- 123&#45;&gt;13 -->
<g id="edge18" class="edge"><title>123-&gt;13</title>
<path fill="none" stroke="black" d="M305.061,-13.2774C295.565,-8.81738 284.437,-5.75718 274,-8.2 270.014,-9.13297 265.972,-10.5026 262.051,-12.1013"></path>
<polygon fill="black" stroke="black" points="260.272,-9.06737 252.652,-16.4286 263.199,-15.4259 260.272,-9.06737"></polygon>
<text text-anchor="middle" x="278" y="-12.2" font-family="Times,serif" font-size="14.00">b</text>
</g>
<!-- 123&#45;&gt;123 -->
<g id="edge16" class="edge"><title>123-&gt;123</title>
<path fill="none" stroke="black" d="M320.271,-56.9857C319.952,-67.4151 323.195,-76 330,-76 334.359,-76 337.257,-72.4767 338.692,-67.2024"></path>
<polygon fill="black" stroke="black" points="342.202,-67.2879 339.729,-56.9857 335.237,-66.5815 342.202,-67.2879"></polygon>
<text text-anchor="middle" x="330" y="-80.2" font-family="Times,serif" font-size="14.00">a</text>
</g>
</g>
</svg>