<svg width="252pt" height="120pt" viewBox="0.00 0.00 252.00 120.00" xmlns="http://www.w3.org/2000/svg" xmlns:xlink="http://www.w3.org/1999/xlink">
<g id="graph1" class="graph" transform="scale(1 1) rotate(0) translate(4 116)">
<title>finite_state_machine</title>
<polygon fill="white" stroke="white" points="-4,5 -4,-116 249,-116 249,5 -4,5"></polygon>
<!-- start -->
<g id="node1" class="node"><title>start</title>
<ellipse fill="black" stroke="black" cx="2" cy="-22" rx="1.8" ry="1.8"></ellipse>
</g>
<!-- 1 -->
<g id="node2" class="node"><title>1</title>
<ellipse fill="none" stroke="red" cx="60" cy="-22" rx="18" ry="18"></ellipse>
<text text-anchor="middle" x="60" y="-17.8" font-family="Times,serif" font-size="14.00">1</text>
</g>
<!-- start&#45;&gt;1 -->
<g id="edge2" class="edge"><title>start-&gt;1</title>
<path fill="none" stroke="black" d="M3.97198,-22C7.43184,-22 19.5845,-22 31.5919,-22"></path>
<polygon fill="black" stroke="black" points="31.8844,-25.5001 41.8843,-22 31.8843,-18.5001 31.8844,-25.5001"></polygon>
</g>
<!-- 1&#45;&gt;1 -->
<g id="edge4" class="edge"><title>1-&gt;1</title>
<path fill="none" stroke="black" d="M56.7643,-39.7817C56.2144,-49.3149 57.293,-58 60,-58 61.6496,-58 62.6945,-54.7749 63.1347,-50.0981"></path>
<polygon fill="black" stroke="black" points="66.6375,-49.8156 63.2357,-39.7817 59.6379,-49.7469 66.6375,-49.8156"></polygon>
<text text-anchor="middle" x="60" y="-62.2" font-family="Times,serif" font-size="14.00">a</text>
</g>
<!-- 1&#45;&gt;1 -->
<g id="edge6" class="edge"><title>1-&gt;1</title>
<path fill="none" stroke="black" d="M54.6841,-39.4203C51.6538,-56.791 53.4258,-76 60,-76 65.2902,-76 67.4708,-63.5617 66.5419,-49.652"></path>
<polygon fill="black" stroke="black" points="69.9808,-48.9328 65.3159,-39.4203 63.0305,-49.7657 69.9808,-48.9328"></polygon>
<text text-anchor="middle" x="60" y="-80.2" font-family="Times,serif" font-size="14.00">b</text>
</g>
<!-- 2 -->
<g id="node3" class="node"><title>2</title>
<ellipse fill="none" stroke="black" cx="138" cy="-22" rx="18" ry="18"></ellipse>
<text text-anchor="middle" x="138" y="-17.8" font-family="Times,serif" font-size="14.00">2</text>
</g>
<!-- 1&#45;&gt;2 -->
<g id="edge8" class="edge"><title>1-&gt;2</title>
<path fill="none" stroke="black" d="M78.2456,-22C87.4768,-22 99.0652,-22 109.505,-22"></path>
<polygon fill="black" stroke="black" points="109.823,-25.5001 119.823,-22 109.823,-18.5001 109.823,-25.5001"></polygon>
<text text-anchor="middle" x="99" y="-26.2" font-family="Times,serif" font-size="14.00">a</text>
</g>
<!-- 3 -->
<g id="node4" class="node"><title>3</title>
<ellipse fill="none" stroke="black" cx="222" cy="-22" rx="18" ry="18"></ellipse>
<ellipse fill="none" stroke="black" cx="222" cy="-22" rx="22" ry="22"></ellipse>
<text text-anchor="middle" x="222" y="-17.8" font-family="Times,serif" font-size="14.00">3</text>
</g>
<!-- 2&#45;&gt;3 -->
<g id="edge10" class="edge"><title>2-&gt;3</title>
<path fill="none" stroke="black" d="M156.39,-22C166.108,-22 178.511,-22 189.847,-22"></path>
<polygon fill="black" stroke="black" points="189.85,-25.5001 199.85,-22 189.85,-18.5001 189.85,-25.5001"></polygon>
<text text-anchor="middle" x="178" y="-26.2" font-family="Times,serif" font-size="14.00">b</text>
</g>
<!-- 3&#45;&gt;3 -->
<g id="edge12" class="edge"><title>3-&gt;3</title>
<path fill="none" stroke="black" d="M217.939,-43.8066C217.553,-53.5625 218.906,-62 222,-62 223.934,-62 225.187,-58.7041 225.761,-53.8504"></path>
<polygon fill="black" stroke="black" points="229.261,-53.9064 226.061,-43.8066 222.264,-53.698 229.261,-53.9064"></polygon>
<text text-anchor="middle" x="222" y="-66.2" font-family="Times,serif" font-size="14.00">a</text>
</g>
<!-- 3&#45;&gt;3 -->
<g id="edge14" class="edge"><title>3-&gt;3</title>
<path fill="none" stroke="black" d="M215.06,-43.1143C211.995,-61.0956 214.309,-80 222,-80 228.249,-80 230.948,-67.5201 230.097,-53.1954"></path>
<polygon fill="black" stroke="black" points="233.557,-52.6501 228.94,-43.1143 226.603,-53.4481 233.557,-52.6501"></polygon>
<text text-anchor="middle" x="222" y="-84.2" font-family="Times,serif" font-size="14.00">b</text>
</g>
</g>
</svg>