<svg width="252pt" height="120pt" viewBox="0.00 0.00 252.00 120.00" xmlns="http://www.w3.org/2000/svg" xmlns:xlink="http://www.w3.org/1999/xlink">
<g id="graph1" class="graph" transform="scale(1 1) rotate(0) translate(4 116)">
<title>finite_state_machine</title>
<polygon fill="white" stroke="white" points="-4,5 -4,-116 249,-116 249,5 -4,5"></polygon>
<!-- start -->
<g id="node1" class="node"><title>start</title>
<ellipse fill="black" stroke="black" cx="2" cy="-22" rx="1.8" ry="1.8"></ellipse>
</g>
<!-- 1 -->
<g id="node2" class="node"><title>1</title>
<ellipse fill="none" stroke="red" cx="60" cy="-22" rx="18" ry="18"></ellipse>
<text text-anchor="middle" x="60" y="-17.8" font-family="Times,serif" font-size="14.00">1</text>
</g>
<!-- start&#45;&gt;1 -->
<g id="edge2" class="edge"><title>start-&gt;1</title>
<path fill="none" stroke="black" d="M3.97198,-22C7.43184,-22 19.5845,-22 31.5919,-22"></path>
<polygon fill="black" stroke="black" points="31.8844,-25.5001 41.8843,-22 31.8843,-18.5001 31.8844,-25.5001"></polygon>
</g>
<!-- 1&#45;&gt;1 -->
<g id="edge4" class="edge"><title>1-&gt;1</title>
<path fill="none" stroke="black" d="M56.7643,-39.7817C56.2144,-49.3149 57.293,-58 60,-58 61.6496,-58 62.6945,-54.7749 63.1347,-50.0981"></path>
<polygon fill="black" stroke="black" points="66.6375,-49.8156 63.2357,-39.7817 59.6379,-49.7469 66.6375,-49.8156"></polygon>
<text text-anchor="middle" x="60" y="-62.2" font-family="Times,serif" font-size="14.00">a</text>
</g>
<!-- 1&#45;&gt;1 -->
<g id="edge6" class="edge"><title>1-&gt;1</title>
<path fill="none" stroke="black" d="M54.6841,-39.4203C51.6538,-56.791 53.4258,-76 60,-76 65.2902,-76 67.4708,-63.5617 66.5419,-49.652"></path>
<polygon fill="black" stroke="black" points="69.9808,-48.9328 65.3159,-39.4203 63.0305,-49.7657 69.9808,-48.9328"></polygon>
<text text-anchor="middle" x="60" y="-80.2" font-family="Times,serif" font-size="14.00">b</text>
</g>
<!-- 2 -->
<g id="node3" class="node"><title>2</title>
<ellipse fill="none" stroke="black" cx="140" cy="-22" rx="18" ry="18"></ellipse>
<text text-anchor="middle" x="140" y="-17.8" font-family="Times,serif" font-size="14.00">2</text>
</g>
<!-- 1&#45;&gt;2 -->
<g id="edge8" class="edge"><title>1-&gt;2</title>
<path fill="none" stroke="black" d="M78.3107,-22C88.1062,-22 100.578,-22 111.665,-22"></path>
<polygon fill="black" stroke="black" points="111.738,-25.5001 121.738,-22 111.738,-18.5001 111.738,-25.5001"></polygon>
<text text-anchor="middle" x="100" y="-26.2" font-family="Times,serif" font-size="14.00">b</text>
</g>
<!-- 2&#45;&gt;2 -->
<g id="edge10" class="edge"><title>2-&gt;2</title>
<path fill="none" stroke="black" d="M133.266,-39.0373C131.892,-48.8579 134.137,-58 140,-58 143.665,-58 145.916,-54.4289 146.753,-49.3529"></path>
<polygon fill="black" stroke="black" points="150.252,-49.0307 146.734,-39.0373 143.252,-49.0439 150.252,-49.0307"></polygon>
<text text-anchor="middle" x="140" y="-62.2" font-family="Times,serif" font-size="14.00">b</text>
</g>
<!-- 3 -->
<g id="node4" class="node"><title>3</title>
<ellipse fill="none" stroke="black" cx="222" cy="-22" rx="18" ry="18"></ellipse>
<ellipse fill="none" stroke="black" cx="222" cy="-22" rx="22" ry="22"></ellipse>
<text text-anchor="middle" x="222" y="-17.8" font-family="Times,serif" font-size="14.00">3</text>
</g>
<!-- 2&#45;&gt;3 -->
<g id="edge12" class="edge"><title>2-&gt;3</title>
<path fill="none" stroke="black" d="M158.359,-22C167.527,-22 179.061,-22 189.725,-22"></path>
<polygon fill="black" stroke="black" points="189.979,-25.5001 199.979,-22 189.979,-18.5001 189.979,-25.5001"></polygon>
<text text-anchor="middle" x="179" y="-26.2" font-family="Times,serif" font-size="14.00">a</text>
</g>
<!-- 2&#45;&gt;3 -->
<g id="edge14" class="edge"><title>2-&gt;3</title>
<path fill="none" stroke="black" d="M154.851,-11.4305C160.986,-7.38967 168.503,-3.25969 176,-1.2 182.427,0.565531 189.083,-0.640257 195.242,-3.18132"></path>
<polygon fill="black" stroke="black" points="193.931,-6.44788 204.406,-8.03839 197.209,-0.262873 193.931,-6.44788"></polygon>
<text text-anchor="middle" x="179" y="-5.2" font-family="Times,serif" font-size="14.00">a</text>
</g>
<!-- 3&#45;&gt;3 -->
<g id="edge16" class="edge"><title>3-&gt;3</title>
<path fill="none" stroke="black" d="M218.124,-43.8066C217.755,-53.5625 219.047,-62 222,-62 223.846,-62 225.043,-58.7041 225.59,-53.8504"></path>
<polygon fill="black" stroke="black" points="229.09,-53.9021 225.876,-43.8066 222.093,-53.7031 229.09,-53.9021"></polygon>
<text text-anchor="middle" x="222" y="-66.2" font-family="Times,serif" font-size="14.00">a</text>
</g>
<!-- 3&#45;&gt;3 -->
<g id="edge18" class="edge"><title>3-&gt;3</title>
<path fill="none" stroke="black" d="M215.375,-43.1143C212.45,-61.0956 214.658,-80 222,-80 227.965,-80 230.541,-67.5201 229.729,-53.1954"></path>
<polygon fill="black" stroke="black" points="233.193,-52.6738 228.625,-43.1143 226.234,-53.4359 233.193,-52.6738"></polygon>
<text text-anchor="middle" x="222" y="-84.2" font-family="Times,serif" font-size="14.00">b</text>
</g>
</g>
</svg>