<svg width="252pt" height="87pt" viewBox="0.00 0.00 252.00 87.04" xmlns="http://www.w3.org/2000/svg" xmlns:xlink="http://www.w3.org/1999/xlink">
<g id="graph1" class="graph" transform="scale(1 1) rotate(0) translate(4 83.0419)">
<title>finite_state_machine</title>
<polygon fill="white" stroke="white" points="-4,5 -4,-83.0419 249,-83.0419 249,5 -4,5"></polygon>
<!-- start -->
<g id="node1" class="node"><title>start</title>
<ellipse fill="black" stroke="black" cx="2" cy="-22.2419" rx="1.8" ry="1.8"></ellipse>
</g>
<!-- 1 -->
<g id="node2" class="node"><title>1</title>
<ellipse fill="none" stroke="red" cx="60" cy="-22.2419" rx="18" ry="18"></ellipse>
<text text-anchor="middle" x="60" y="-18.0419" font-family="Times,serif" font-size="14.00">1</text>
</g>
<!-- start&#45;&gt;1 -->
<g id="edge2" class="edge"><title>start-&gt;1</title>
<path fill="none" stroke="black" d="M3.97198,-22.2419C7.43184,-22.2419 19.5845,-22.2419 31.5919,-22.2419"></path>
<polygon fill="black" stroke="black" points="31.8844,-25.742 41.8843,-22.2419 31.8843,-18.742 31.8844,-25.742"></polygon>
</g>
<!-- 1&#45;&gt;1 -->
<g id="edge4" class="edge"><title>1-&gt;1</title>
<path fill="none" stroke="black" d="M53.6208,-39.2792C52.3189,-49.0998 54.4453,-58.2419 60,-58.2419 63.4717,-58.2419 65.6042,-54.6708 66.3975,-49.5948"></path>
<polygon fill="black" stroke="black" points="69.8971,-49.2729 66.3792,-39.2792 62.8971,-49.2854 69.8971,-49.2729"></polygon>
<text text-anchor="middle" x="60" y="-62.4419" font-family="Times,serif" font-size="14.00">a</text>
</g>
<!-- 2 -->
<g id="node3" class="node"><title>2</title>
<ellipse fill="none" stroke="black" cx="144" cy="-22.2419" rx="18" ry="18"></ellipse>
<ellipse fill="none" stroke="black" cx="144" cy="-22.2419" rx="22" ry="22"></ellipse>
<text text-anchor="middle" x="144" y="-18.0419" font-family="Times,serif" font-size="14.00">2</text>
</g>
<!-- 1&#45;&gt;2 -->
<g id="edge6" class="edge"><title>1-&gt;2</title>
<path fill="none" stroke="black" d="M78.3901,-22.2419C88.1084,-22.2419 100.511,-22.2419 111.847,-22.2419"></path>
<polygon fill="black" stroke="black" points="111.85,-25.742 121.85,-22.2419 111.85,-18.742 111.85,-25.742"></polygon>
<text text-anchor="middle" x="100" y="-26.4419" font-family="Times,serif" font-size="14.00">b</text>
</g>
<!-- 2&#45;&gt;1 -->
<g id="edge10" class="edge"><title>2-&gt;1</title>
<path fill="none" stroke="black" d="M126.477,-8.74082C117.664,-3.14686 106.497,1.44189 96,-1.44189 91.7827,-2.60047 87.5593,-4.41409 83.5793,-6.49844"></path>
<polygon fill="black" stroke="black" points="81.6686,-3.56225 74.8512,-11.6724 85.2382,-9.58376 81.6686,-3.56225"></polygon>
<text text-anchor="middle" x="100" y="-5.44189" font-family="Times,serif" font-size="14.00">a</text>
</g>
<!-- 2&#45;&gt;2 -->
<g id="edge8" class="edge"><title>2-&gt;2</title>
<path fill="none" stroke="black" d="M136.317,-43.2326C135.369,-53.3291 137.93,-62.2419 144,-62.2419 147.889,-62.2419 150.337,-58.5841 151.346,-53.3005"></path>
<polygon fill="black" stroke="black" points="154.846,-53.3442 151.683,-43.2326 147.85,-53.1099 154.846,-53.3442"></polygon>
<text text-anchor="middle" x="144" y="-66.4419" font-family="Times,serif" font-size="14.00">b</text>
</g>
<!-- 3 -->
<g id="node4" class="node"><title>3</title>
<ellipse fill="none" stroke="black" cx="226" cy="-22.2419" rx="18" ry="18"></ellipse>
<text text-anchor="middle" x="226" y="-18.0419" font-family="Times,serif" font-size="14.00">3</text>
</g>
<!-- 2&#45;&gt;3 -->
<g id="edge12" class="edge"><title>2-&gt;3</title>
<path fill="none" stroke="black" d="M166.019,-22.2419C175.708,-22.2419 187.332,-22.2419 197.689,-22.2419"></path>
<polygon fill="black" stroke="black" points="197.89,-25.742 207.89,-22.2419 197.89,-18.742 197.89,-25.742"></polygon>
<text text-anchor="middle" x="187" y="-26.4419" font-family="Times,serif" font-size="14.00">a</text>
</g>
<!-- 3&#45;&gt;2 -->
<g id="edge14" class="edge"><title>3-&gt;2</title>
<path fill="none" stroke="black" d="M211.149,-11.6724C205.014,-7.63156 197.497,-3.50158 190,-1.44189 183.573,0.323643 176.917,-0.882145 170.758,-3.42321"></path>
<polygon fill="black" stroke="black" points="168.791,-0.504761 161.594,-8.28028 172.069,-6.68977 168.791,-0.504761"></polygon>
<text text-anchor="middle" x="187" y="-5.44189" font-family="Times,serif" font-size="14.00">a</text>
</g>
<!-- 3&#45;&gt;3 -->
<g id="edge16" class="edge"><title>3-&gt;3</title>
<path fill="none" stroke="black" d="M219.266,-39.2792C217.892,-49.0998 220.137,-58.2419 226,-58.2419 229.665,-58.2419 231.916,-54.6708 232.753,-49.5948"></path>
<polygon fill="black" stroke="black" points="236.252,-49.2726 232.734,-39.2792 229.252,-49.2858 236.252,-49.2726"></polygon>
<text text-anchor="middle" x="226" y="-62.4419" font-family="Times,serif" font-size="14.00">b</text>
</g>
</g>
</svg>