<svg width="332pt" height="106pt" viewBox="0.00 0.00 332.00 106.00" xmlns="http://www.w3.org/2000/svg" xmlns:xlink="http://www.w3.org/1999/xlink">
<g id="graph1" class="graph" transform="scale(1 1) rotate(0) translate(4 102)">
<title>finite_state_machine</title>
<polygon fill="white" stroke="white" points="-4,5 -4,-102 329,-102 329,5 -4,5"></polygon>
<!-- start -->
<g id="node1" class="node"><title>start</title>
<ellipse fill="black" stroke="black" cx="2" cy="-59" rx="1.8" ry="1.8"></ellipse>
</g>
<!-- 1 -->
<g id="node2" class="node"><title>1</title>
<ellipse fill="none" stroke="red" cx="60" cy="-59" rx="18" ry="18"></ellipse>
<text text-anchor="middle" x="60" y="-54.8" font-family="Times,serif" font-size="14.00">1</text>
</g>
<!-- start&#45;&gt;1 -->
<g id="edge2" class="edge"><title>start-&gt;1</title>
<path fill="none" stroke="black" d="M3.97198,-59C7.43184,-59 19.5845,-59 31.5919,-59"></path>
<polygon fill="black" stroke="black" points="31.8844,-62.5001 41.8843,-59 31.8843,-55.5001 31.8844,-62.5001"></polygon>
</g>
<!-- 2 -->
<g id="node3" class="node"><title>2</title>
<ellipse fill="none" stroke="black" cx="140" cy="-79" rx="18" ry="18"></ellipse>
<text text-anchor="middle" x="140" y="-74.8" font-family="Times,serif" font-size="14.00">2</text>
</g>
<!-- 1&#45;&gt;2 -->
<g id="edge4" class="edge"><title>1-&gt;2</title>
<path fill="none" stroke="black" d="M75.7596,-68.3743C81.7985,-71.7258 89.002,-75.1328 96,-77 100.973,-78.327 106.383,-79.0847 111.634,-79.4834"></path>
<polygon fill="black" stroke="black" points="111.879,-82.9947 122.001,-79.865 112.136,-75.9994 111.879,-82.9947"></polygon>
<text text-anchor="middle" x="100" y="-82.2" font-family="Times,serif" font-size="14.00">b</text>
</g>
<!-- 3 -->
<g id="node4" class="node"><title>3</title>
<ellipse fill="none" stroke="black" cx="218" cy="-47" rx="18" ry="18"></ellipse>
<text text-anchor="middle" x="218" y="-42.8" font-family="Times,serif" font-size="14.00">3</text>
</g>
<!-- 1&#45;&gt;3 -->
<g id="edge6" class="edge"><title>1-&gt;3</title>
<path fill="none" stroke="black" d="M76.5734,-51.0579C88.6228,-45.3793 105.913,-38.2272 122,-35.2 145.014,-30.8693 171.475,-34.8808 190.615,-39.3633"></path>
<polygon fill="black" stroke="black" points="189.874,-42.786 200.427,-41.852 191.595,-36.0008 189.874,-42.786"></polygon>
<text text-anchor="middle" x="140" y="-40.2" font-family="Times,serif" font-size="14.00">a</text>
</g>
<!-- 2&#45;&gt;1 -->
<g id="edge8" class="edge"><title>2-&gt;1</title>
<path fill="none" stroke="black" d="M125.627,-67.6686C119.459,-63.1655 111.786,-58.5124 104,-56.2 98.8432,-54.6685 93.1909,-54.2183 87.7281,-54.3627"></path>
<polygon fill="black" stroke="black" points="87.2942,-50.8872 77.6372,-55.2453 87.9042,-57.8606 87.2942,-50.8872"></polygon>
<text text-anchor="middle" x="100" y="-61.2" font-family="Times,serif" font-size="14.00">a</text>
</g>
<!-- 2&#45;&gt;3 -->
<g id="edge10" class="edge"><title>2-&gt;3</title>
<path fill="none" stroke="black" d="M156.747,-72.3696C166.768,-68.1502 179.977,-62.5885 191.473,-57.7482"></path>
<polygon fill="black" stroke="black" points="193.153,-60.8384 201.011,-53.732 190.437,-54.3869 193.153,-60.8384"></polygon>
<text text-anchor="middle" x="179" y="-68.2" font-family="Times,serif" font-size="14.00">a</text>
</g>
<!-- 5 -->
<g id="node5" class="node"><title>5</title>
<ellipse fill="none" stroke="black" cx="302" cy="-76" rx="18" ry="18"></ellipse>
<ellipse fill="none" stroke="black" cx="302" cy="-76" rx="22" ry="22"></ellipse>
<text text-anchor="middle" x="302" y="-71.8" font-family="Times,serif" font-size="14.00">5</text>
</g>
<!-- 3&#45;&gt;5 -->
<g id="edge12" class="edge"><title>3-&gt;5</title>
<path fill="none" stroke="black" d="M235.201,-52.7295C245.484,-56.3661 259.1,-61.1818 271.278,-65.4884"></path>
<polygon fill="black" stroke="black" points="270.469,-68.9147 281.063,-68.9493 272.803,-62.3152 270.469,-68.9147"></polygon>
<text text-anchor="middle" x="258" y="-66.2" font-family="Times,serif" font-size="14.00">b</text>
</g>
<!-- 4 -->
<g id="node6" class="node"><title>4</title>
<ellipse fill="none" stroke="black" cx="302" cy="-18" rx="18" ry="18"></ellipse>
<text text-anchor="middle" x="302" y="-13.8" font-family="Times,serif" font-size="14.00">4</text>
</g>
<!-- 3&#45;&gt;4 -->
<g id="edge14" class="edge"><title>3-&gt;4</title>
<path fill="none" stroke="black" d="M235.201,-41.2705C246.656,-37.2191 262.249,-31.7045 275.381,-27.0605"></path>
<polygon fill="black" stroke="black" points="276.572,-30.3516 284.833,-23.7176 274.238,-23.7521 276.572,-30.3516"></polygon>
<text text-anchor="middle" x="258" y="-39.2" font-family="Times,serif" font-size="14.00">a</text>
</g>
</g>
</svg>