<svg width="182pt" height="87pt" viewBox="0.00 0.00 182.00 86.80" xmlns="http://www.w3.org/2000/svg" xmlns:xlink="http://www.w3.org/1999/xlink">
<g id="graph1" class="graph" transform="scale(1 1) rotate(0) translate(4 82.8)">
<title>finite_state_machine</title>
<polygon fill="white" stroke="white" points="-4,5 -4,-82.8 179,-82.8 179,5 -4,5"></polygon>
<!-- start -->
<g id="node1" class="node"><title>start</title>
<ellipse fill="black" stroke="black" cx="2" cy="-22" rx="1.8" ry="1.8"></ellipse>
</g>
<!-- 1 -->
<g id="node2" class="node"><title>1</title>
<ellipse fill="none" stroke="red" cx="64" cy="-22" rx="18" ry="18"></ellipse>
<ellipse fill="none" stroke="red" cx="64" cy="-22" rx="22" ry="22"></ellipse>
<text text-anchor="middle" x="64" y="-17.8" font-family="Times,serif" font-size="14.00">1</text>
</g>
<!-- start&#45;&gt;1 -->
<g id="edge2" class="edge"><title>start-&gt;1</title>
<path fill="none" stroke="black" d="M4.04141,-22C7.56702,-22 19.5171,-22 31.7457,-22"></path>
<polygon fill="black" stroke="black" points="31.9043,-25.5001 41.9043,-22 31.9042,-18.5001 31.9043,-25.5001"></polygon>
</g>
<!-- 1&#45;&gt;1 -->
<g id="edge4" class="edge"><title>1-&gt;1</title>
<path fill="none" stroke="black" d="M56.6831,-42.9908C55.7798,-53.0872 58.2188,-62 64,-62 67.7036,-62 70.0356,-58.3422 70.9958,-53.0587"></path>
<polygon fill="black" stroke="black" points="74.4963,-53.0973 71.3169,-42.9908 67.4998,-52.8741 74.4963,-53.0973"></polygon>
<text text-anchor="middle" x="64" y="-66.2" font-family="Times,serif" font-size="14.00">a</text>
</g>
<!-- 2 -->
<g id="node3" class="node"><title>2</title>
<ellipse fill="none" stroke="black" cx="152" cy="-22" rx="18" ry="18"></ellipse>
<ellipse fill="none" stroke="black" cx="152" cy="-22" rx="22" ry="22"></ellipse>
<text text-anchor="middle" x="152" y="-17.8" font-family="Times,serif" font-size="14.00">2</text>
</g>
<!-- 1&#45;&gt;2 -->
<g id="edge6" class="edge"><title>1-&gt;2</title>
<path fill="none" stroke="black" d="M86.2584,-22C96.3604,-22 108.635,-22 119.769,-22"></path>
<polygon fill="black" stroke="black" points="119.986,-25.5001 129.986,-22 119.986,-18.5001 119.986,-25.5001"></polygon>
<text text-anchor="middle" x="108" y="-26.2" font-family="Times,serif" font-size="14.00">b</text>
</g>
<!-- 2&#45;&gt;2 -->
<g id="edge8" class="edge"><title>2-&gt;2</title>
<path fill="none" stroke="black" d="M143.994,-42.5808C142.886,-52.8447 145.555,-62 152,-62 156.129,-62 158.708,-58.2427 159.737,-52.8436"></path>
<polygon fill="black" stroke="black" points="163.243,-52.6691 160.006,-42.5808 156.245,-52.4857 163.243,-52.6691"></polygon>
<text text-anchor="middle" x="152" y="-66.2" font-family="Times,serif" font-size="14.00">b</text>
</g>
</g>
</svg>