<svg width="189pt" height="120pt" viewBox="0.00 0.00 189.08 120.00" xmlns="http://www.w3.org/2000/svg" xmlns:xlink="http://www.w3.org/1999/xlink">
<g id="graph1" class="graph" transform="scale(1 1) rotate(0) translate(4 116)">
<title>finite_state_machine</title>
<polygon fill="white" stroke="white" points="-4,5 -4,-116 186.083,-116 186.083,5 -4,5"></polygon>
<!-- start -->
<g id="node1" class="node"><title>start</title>
<ellipse fill="black" stroke="black" cx="2" cy="-22" rx="1.8" ry="1.8"></ellipse>
</g>
<!-- 1 -->
<g id="node2" class="node"><title>1</title>
<ellipse fill="none" stroke="black" cx="60" cy="-22" rx="18" ry="18"></ellipse>
<text text-anchor="middle" x="60" y="-17.8" font-family="Times,serif" font-size="14.00">1</text>
</g>
<!-- start&#45;&gt;1 -->
<g id="edge2" class="edge"><title>start-&gt;1</title>
<path fill="none" stroke="black" d="M3.97198,-22C7.43184,-22 19.5845,-22 31.5919,-22"></path>
<polygon fill="black" stroke="black" points="31.8844,-25.5001 41.8843,-22 31.8843,-18.5001 31.8844,-25.5001"></polygon>
</g>
<!-- 1&#45;&gt;1 -->
<g id="edge4" class="edge"><title>1-&gt;1</title>
<path fill="none" stroke="black" d="M56.7643,-39.7817C56.2144,-49.3149 57.293,-58 60,-58 61.6496,-58 62.6945,-54.7749 63.1347,-50.0981"></path>
<polygon fill="black" stroke="black" points="66.6375,-49.8156 63.2357,-39.7817 59.6379,-49.7469 66.6375,-49.8156"></polygon>
<text text-anchor="middle" x="60" y="-62.2" font-family="Times,serif" font-size="14.00">a -/a</text>
</g>
<!-- 1&#45;&gt;1 -->
<g id="edge6" class="edge"><title>1-&gt;1</title>
<path fill="none" stroke="black" d="M46.3358,-34.2045C32.1251,-52.6892 36.6798,-76 60,-76 79.6764,-76 85.9934,-59.4047 78.951,-43.1153"></path>
<polygon fill="black" stroke="black" points="81.7768,-41.0188 73.6642,-34.2045 75.7567,-44.5906 81.7768,-41.0188"></polygon>
<text text-anchor="middle" x="60" y="-80.2" font-family="Times,serif" font-size="14.00">b -/b</text>
</g>
<!-- 2 -->
<g id="node3" class="node"><title>2</title>
<ellipse fill="none" stroke="black" cx="158" cy="-22" rx="18" ry="18"></ellipse>
<ellipse fill="none" stroke="black" cx="158" cy="-22" rx="22" ry="22"></ellipse>
<text text-anchor="middle" x="158" y="-17.8" font-family="Times,serif" font-size="14.00">2</text>
</g>
<!-- 1&#45;&gt;2 -->
<g id="edge8" class="edge"><title>1-&gt;2</title>
<path fill="none" stroke="black" d="M78.1629,-22C91.3087,-22 109.806,-22 125.58,-22"></path>
<polygon fill="black" stroke="black" points="125.966,-25.5001 135.966,-22 125.966,-18.5001 125.966,-25.5001"></polygon>
<text text-anchor="middle" x="107" y="-26.2" font-family="Times,serif" font-size="14.00">- -/-</text>
</g>
<!-- 2&#45;&gt;2 -->
<g id="edge10" class="edge"><title>2-&gt;2</title>
<path fill="none" stroke="black" d="M153.386,-43.8066C152.946,-53.5625 154.484,-62 158,-62 160.197,-62 161.622,-58.7041 162.274,-53.8504"></path>
<polygon fill="black" stroke="black" points="165.774,-53.9193 162.614,-43.8066 158.778,-53.6825 165.774,-53.9193"></polygon>
<text text-anchor="middle" x="158" y="-66.2" font-family="Times,serif" font-size="14.00">a a/-</text>
</g>
<!-- 2&#45;&gt;2 -->
<g id="edge12" class="edge"><title>2-&gt;2</title>
<path fill="none" stroke="black" d="M142.044,-37.1492C128.793,-56.6352 134.112,-80 158,-80 178.342,-80 185.219,-63.0568 178.63,-45.9939"></path>
<polygon fill="black" stroke="black" points="181.723,-44.3559 173.956,-37.1492 175.534,-47.6261 181.723,-44.3559"></polygon>
<text text-anchor="middle" x="158" y="-84.2" font-family="Times,serif" font-size="14.00">b b/-</text>
</g>
</g>
</svg>